
<svg xmlns="http://www.w3.org/2000/svg" id="Ebene_1" data-name="Ebene 1" viewBox="0 0 240.9 172.9"><defs><style>      .cls-1 {        fill: #2E3092;        stroke-width: 0px;      }    </style></defs><polygon class="cls-1" points="70.1 27.2 73.8 27.2 74.4 23.7 70.7 23.7 71.4 20.2 75.3 20.2 75.9 16.7 67.8 16.7 64.7 34.5 68.8 34.5 70.1 27.2"></polygon><polygon class="cls-1" points="83 34.5 83.6 30.7 79.9 30.7 82.4 16.7 78.2 16.7 75.1 34.5 83 34.5"></polygon><polygon class="cls-1" points="97.7 13.4 95.1 13.4 94.7 15.4 97.3 15.4 97.7 13.4"></polygon><path class="cls-1" d="M89.1,32.2h3v2.3c0,0,4,0,4,0l-.7-17.8h-4.4l-6.9,17.8h4.3l.7-2.3ZM92.5,21.5l-.2,7.3h-2l2.3-7.3Z"></path><polygon class="cls-1" points="92.7 13.4 90.1 13.4 89.7 15.4 92.3 15.4 92.7 13.4"></polygon><polygon class="cls-1" points="103 28 103.2 25.2 104.1 31 106.5 31 109.5 25.4 108.8 28 107.7 34.5 111.6 34.5 114.8 16.7 110.7 16.7 106.3 25.5 105 16.7 101 16.7 97.9 34.5 101.8 34.5 103 28"></polygon><polygon class="cls-1" points="122.1 16.7 117.9 16.7 114.8 34.5 119 34.5 122.1 16.7"></polygon><polygon class="cls-1" points="126.9 28.5 127.2 25.3 129 34.5 132.3 34.5 135.4 16.7 131.7 16.7 130.7 22.3 130.4 25.4 128.7 16.7 125.3 16.7 122.1 34.5 125.9 34.5 126.9 28.5"></polygon><path class="cls-1" d="M145,34.9c2.4,0,4.3-.5,5.6-1.1l1.8-10.1h-8.3l-.6,3.5h4.4l-.7,3.9c-.8.2-1.4.2-2.1.2-2.9,0-4.9-2.1-4.9-5.2s2.5-6.2,5.7-6.2l6.2,1.8.7-3.7c-1.9-.9-4.2-1.8-6.7-1.8-5.6,0-10,4.2-10,10,0,5.1,3.8,8.7,8.9,8.7Z"></path><polygon class="cls-1" points="162.2 31 158.2 31 158.8 27.2 162.6 27.2 163.2 23.7 159.5 23.7 160.1 20.2 164.1 20.2 164.7 16.7 156.5 16.7 153.4 34.5 161.6 34.5 162.2 31"></polygon><path class="cls-1" d="M168.6,34.5l1.3-7.6,1.7,7.6h4.5l-2.1-7.2-2.1-.6h0c3.5,0,5.6-2.6,5.6-5.2s-1.8-4.7-5.1-4.7h-5l-3.1,17.8h4.2ZM171,20.3h.6c1,0,1.7.5,1.7,1.7s-1.1,2.1-2.4,2.1h-.6l.7-3.8Z"></path><path class="cls-1" d="M114.8,88.4l-9.6,54c-.6,3.4-2.2,4.6-4.4,4.6s-3.3-.8-3.3-3.3,0-.8.2-1.4l9.6-54h-13.2l-9.2,51.9c-.3,1.8-.5,3.4-.5,4.8,0,10.9,8,14.4,15.5,14.4s16.2-3.6,18.4-16l9.8-55.1h-13.2Z"></path><path class="cls-1" d="M65.3,88.4l-22.1,56.8h13.6l2.2-7.2h9.7l-.2,7.2h13l-2.1-56.8h-14.1ZM69.1,126.8h-6.5l7.3-23.1-.8,23.1Z"></path><path class="cls-1" d="M145.7,99l11.4,5.9,2.1-11.7c-3.1-2.9-7.8-5.6-13.3-5.6-9.4,0-16.5,6.4-16.5,16.1,0,14.5,15.3,18.4,15.3,25.8s-2.7,5.3-6.5,5.3l-12.9-5.9-2.1,11.9c3.9,3.3,8.9,5.5,14.9,5.5,10.6,0,18.2-6.5,18.2-17.2,0-15.3-15.4-18.3-15.4-26,0-2.5,1.8-4.1,4.6-4.1Z"></path><path class="cls-1" d="M31.8,96c0-2.5,1.8-4.1,4.6-4.1l11.6,6,1.9-11.8c-3.1-2.9-7.8-5.6-13.3-5.6-9.4,0-16.5,6.4-16.5,16.1,0,14.5,15.3,18.4,15.3,25.8s-2.7,5.3-6.5,5.3l-12.9-5.9-2.1,11.9c3.9,3.3,8.9,5.5,14.9,5.5,10.6,0,18.2-6.5,18.2-17.2,0-15.3-15.4-18.3-15.4-26Z"></path><polygon class="cls-1" points="38.4 51.8 38.4 51.8 42.1 75.5 54.2 75.5 49.4 51.2 61 29.1 48.5 29.1 38.7 50.3 38.6 50.4 42.4 29.1 31.6 29.1 23.4 75.5 34.3 75.5 38.4 51.8"></polygon><path class="cls-1" d="M66.7,84.7l3.5-19.8,4.5,19.8h11.8l-5.4-18.9-5.4-1.6h.1c9.2,0,14.6-6.9,14.6-13.7s-4.8-12.3-13.2-12.3h-13.2l-8.2,46.5h10.9ZM73.2,47.6h1.6c2.6,0,4.5,1.4,4.5,4.5s-2.8,5.4-6.2,5.4h-1.6l1.7-9.9Z"></path><polygon class="cls-1" points="184.3 75.5 192.5 29.1 181.6 29.1 173.4 75.5 184.3 75.5"></polygon><polygon class="cls-1" points="215.3 29.1 205.3 58.6 205.8 29.1 195.5 29.1 197.5 75.5 208.4 75.5 226.8 29.1 215.3 29.1"></polygon><path class="cls-1" d="M144.4,84.7l-1.7-46.5h-11.5l-18.1,46.5h11.1l1.8-5.9h7.9l-.2,5.9h10.6ZM129,69.6l6-18.9-.7,18.9h-5.3Z"></path><polygon class="cls-1" points="160.7 84.7 167.1 48 174.4 48 176.1 38.2 150.8 38.2 149.1 48 156.3 48 149.8 84.7 160.7 84.7"></polygon><polygon class="cls-1" points="113.1 65.7 114.7 56.5 104.9 56.5 106.6 47.4 117 47.4 118.5 38.2 97.3 38.2 89.1 84.7 110.4 84.7 112.1 75.5 101.6 75.5 103.3 65.7 113.1 65.7"></polygon><polygon class="cls-1" points="157.2 152.5 186.9 152.5 188.8 141.5 172.2 141.5 176.2 119.2 191.7 119.2 193.7 108.1 178.2 108.1 181.4 90.3 197.8 90.3 199.7 79.2 170.1 79.2 157.2 152.5"></polygon></svg>